<svg width="143" height="15" viewBox="0 0 143 15" fill="none" xmlns="http://www.w3.org/2000/svg">
<path d="M143 4L137.472 14.19V12.44L139.192 10.72L139.032 10.56L137.472 12.12V10.37L139.192 8.65L139.032 8.48L137.472 10.05V8.3L139.192 6.58L139.032 6.42L137.472 7.98V6.23L139.192 4.51L139.032 4.34L137.472 5.9V4.16L139.192 2.43999L139.032 2.27L137.472 3.83V2.09L139.192 0.360001L139.032 0.199997L137.472 1.76V0.220001H137.182V1.76L135.622 0.199997L135.462 0.360001L137.182 2.09V3.83L135.622 2.27L135.462 2.43999L137.182 4.16V5.9L135.622 4.34L135.462 4.51L137.182 6.23V7.97L135.622 6.42L135.462 6.58L137.182 8.3V10.04L135.622 8.48L135.462 8.65L137.182 10.37V12.11L135.622 10.56L135.462 10.72L137.182 12.44V14.15L131.482 4.51V4.18999L133.242 2.43L133.082 2.27L131.482 3.87V2.12L133.242 0.360001L133.082 0.199997L131.482 1.8V0H131.272V1.8L129.672 0.199997L129.502 0.360001L131.272 2.12V3.87L129.672 2.27L129.502 2.43L131.272 4.18999V4.52L125.542 14.19V12.44L127.272 10.72L127.102 10.56L125.542 12.12V10.37L127.272 8.65L127.102 8.48L125.542 10.05V8.3L127.272 6.58L127.102 6.42L125.542 7.98V6.23L127.272 4.51L127.102 4.34L125.542 5.9V4.16L127.272 2.43999L127.102 2.27L125.542 3.83V2.09L127.272 0.360001L127.102 0.199997L125.542 1.76V0.220001H125.262V1.76L123.702 0.199997L123.532 0.360001L125.262 2.09V3.83L123.702 2.27L123.532 2.43999L125.262 4.16V5.9L123.702 4.34L123.532 4.51L125.262 6.23V7.98L123.702 6.42L123.532 6.58L125.262 8.3V10.05L123.702 8.48L123.532 8.65L125.262 10.37V12.12L123.702 10.56L123.532 10.72L125.262 12.44V14.14L119.562 4.51V4.2L121.322 2.43L121.162 2.27L119.562 3.87V2.13L121.322 0.360001L121.162 0.199997L119.562 1.8V0H119.342V1.8L117.752 0.199997L117.582 0.360001L119.342 2.12V3.87L117.752 2.27L117.582 2.43L119.342 4.18999V4.52L113.622 14.18V12.44L115.352 10.72L115.182 10.56L113.622 12.11V10.37L115.352 8.65L115.182 8.48L113.622 10.04V8.3L115.352 6.58L115.182 6.42L113.622 7.97V6.23L115.352 4.51L115.182 4.34L113.622 5.9V4.15L115.352 2.43999L115.182 2.27L113.622 3.83V2.08L115.352 0.360001L115.182 0.199997L113.622 1.76V0.220001H113.332V1.76L111.782 0.199997L111.612 0.360001L113.332 2.09V3.83L111.782 2.27L111.612 2.43999L113.332 4.16V5.9L111.782 4.34L111.612 4.51L113.332 6.23V7.97L111.782 6.42L111.612 6.58L113.332 8.3V10.04L111.782 8.48L111.612 8.65L113.332 10.37V12.11L111.782 10.56L111.612 10.72L113.332 12.44V14.14L107.642 4.51V4.2L109.402 2.43L109.232 2.27L107.642 3.87V2.13L109.402 0.360001L109.232 0.199997L107.642 1.8V0H107.422V1.8L105.822 0.199997L105.662 0.360001L107.422 2.12V3.87L105.822 2.27L105.662 2.43L107.422 4.18999V4.52L101.702 14.18V12.44L103.422 10.72L103.262 10.56L101.702 12.11V10.37L103.422 8.65L103.262 8.48L101.702 10.04V8.3L103.422 6.58L103.262 6.42L101.702 7.97V6.23L103.422 4.51L103.262 4.34L101.702 5.9V4.16L103.422 2.43999L103.262 2.27L101.702 3.83V2.09L103.422 0.360001L103.262 0.199997L101.702 1.76V0.220001H101.412V1.76L99.8522 0.199997L99.6922 0.360001L101.412 2.08V3.83L99.8522 2.27L99.6922 2.43999L101.412 4.15V5.9L99.8522 4.34L99.6922 4.51L101.412 6.23V7.97L99.8522 6.42L99.6922 6.58L101.412 8.3V10.04L99.8522 8.48L99.6922 8.65L101.412 10.37V12.11L99.8522 10.56L99.6922 10.72L101.412 12.44V14.14L95.7123 4.51V4.18999L97.4722 2.43L97.3122 2.27L95.7123 3.87V2.12L97.4722 0.360001L97.3122 0.199997L95.7123 1.8V0H95.5022V1.8L93.9023 0.199997L93.7423 0.360001L95.5022 2.12V3.87L93.9023 2.27L93.7423 2.43L95.5022 4.18999V4.52L89.7822 14.18V12.44L91.5022 10.72L91.3422 10.56L89.7822 12.12V10.37L91.5022 8.65L91.3422 8.48L89.7822 10.05V8.3L91.5022 6.58L91.3422 6.42L89.7822 7.98V6.23L91.5022 4.51L91.3422 4.34L89.7822 5.9V4.16L91.5022 2.43999L91.3422 2.27L89.7822 3.83V2.09L91.5022 0.360001L91.3422 0.199997L89.7822 1.76V0.220001H89.4823V1.76L87.9323 0.199997L87.7723 0.360001L89.4823 2.08V3.83L87.9323 2.27L87.7723 2.43999L89.4823 4.15V5.9L87.9323 4.34L87.7723 4.51L89.4823 6.23V7.97L87.9323 6.42L87.7723 6.58L89.4823 8.29V10.04L87.9323 8.48L87.7723 8.65L89.4823 10.36V12.11L87.9323 10.56L87.7723 10.72L89.4823 12.44V14.14L83.7923 4.52V4.18999L85.5523 2.43L85.3923 2.27L83.7923 3.87V2.12L85.5523 0.360001L85.3923 0.199997L83.7923 1.8V0H83.5823V1.8L81.9823 0.199997L81.8223 0.360001L83.5823 2.12V3.87L81.9823 2.27L81.8223 2.43L83.5823 4.18999V4.51L77.8623 14.19V12.44L79.5823 10.72L79.4223 10.56L77.8623 12.11V10.37L79.5823 8.65L79.4223 8.48L77.8623 10.04V8.3L79.5823 6.58L79.4223 6.42L77.8623 7.97V6.23L79.5823 4.51L79.4223 4.34L77.8623 5.9V4.16L79.5823 2.43999L79.4223 2.27L77.8623 3.83V2.09L79.5823 0.360001L79.4223 0.199997L77.8623 1.76V0.220001H77.5723V1.76L76.0123 0.199997L75.8422 0.360001L77.5723 2.09V3.83L76.0123 2.27L75.8422 2.43999L77.5723 4.16V5.9L76.0123 4.34L75.8422 4.51L77.5723 6.23V7.97L76.0123 6.42L75.8422 6.58L77.5723 8.3V10.04L76.0123 8.48L75.8422 8.65L77.5723 10.37V12.11L76.0123 10.56L75.8422 10.72L77.5723 12.44V14.14L71.8722 4.52V4.18999L73.6322 2.43L73.4722 2.27L71.8722 3.87V2.12L73.6322 0.360001L73.4722 0.199997L71.8722 1.8V0H71.6622V1.8L70.0622 0.199997L69.9023 0.360001L71.6622 2.13V3.87L70.0622 2.27L69.9023 2.43L71.6622 4.2V4.51L65.9323 14.18V12.44L67.6622 10.72L67.4923 10.56L65.9323 12.11V10.37L67.6622 8.65L67.4923 8.48L65.9323 10.04V8.3L67.6622 6.58L67.4923 6.42L65.9323 7.97V6.23L67.6622 4.51L67.4923 4.34L65.9323 5.9V4.15L67.6622 2.43999L67.4923 2.27L65.9323 3.83V2.08L67.6622 0.360001L67.4923 0.199997L65.9323 1.76V0.220001H65.6423V1.76L64.0823 0.199997L63.9223 0.360001L65.6423 2.09V3.83L64.0823 2.27L63.9223 2.43999L65.6423 4.16V5.9L64.0823 4.34L63.9223 4.51L65.6423 6.23V7.97L64.0823 6.42L63.9223 6.58L65.6423 8.3V10.04L64.0823 8.48L63.9223 8.65L65.6423 10.37V12.11L64.0823 10.56L63.9223 10.72L65.6423 12.44V14.14L59.9523 4.51V4.18999L61.7123 2.43L61.5523 2.27L59.9523 3.87V2.12L61.7123 0.360001L61.5523 0.199997L59.9523 1.8V0H59.7323V1.8L58.1423 0.199997L57.9722 0.360001L59.7323 2.12V3.87L58.1423 2.27L57.9722 2.43L59.7323 4.18999V4.52L54.0123 14.18V12.44L55.7323 10.72L55.5723 10.56L54.0123 12.11V10.37L55.7323 8.65L55.5723 8.48L54.0123 10.04V8.3L55.7323 6.58L55.5723 6.42L54.0123 7.97V6.23L55.7323 4.51L55.5723 4.34L54.0123 5.9V4.16L55.7323 2.43999L55.5723 2.27L54.0123 3.83V2.09L55.7323 0.360001L55.5723 0.199997L54.0123 1.76V0.220001H53.7222V1.76L52.1623 0.199997L52.0022 0.360001L53.7222 2.08V3.83L52.1623 2.27L52.0022 2.43999L53.7222 4.15V5.9L52.1623 4.34L52.0022 4.51L53.7222 6.23V7.97L52.1623 6.42L52.0022 6.58L53.7222 8.3V10.04L52.1623 8.48L52.0022 8.65L53.7222 10.37V12.11L52.1623 10.56L52.0022 10.72L53.7222 12.44V14.14L48.0322 4.52V4.18999L49.7923 2.43L49.6222 2.27L48.0322 3.87V2.12L49.7923 0.360001L49.6222 0.199997L48.0322 1.8V0H47.8122V1.8L46.2123 0.199997L46.0523 0.360001L47.8122 2.13V3.87L46.2123 2.27L46.0523 2.43L47.8122 4.2V4.51L42.0922 14.18V12.44L43.8122 10.72L43.6523 10.56L42.0922 12.11V10.37L43.8122 8.65L43.6523 8.48L42.0922 10.04V8.3L43.8122 6.58L43.6523 6.42L42.0922 7.97V6.23L43.8122 4.51L43.6523 4.34L42.0922 5.9V4.16L43.8122 2.43999L43.6523 2.27L42.0922 3.83V2.09L43.8122 0.360001L43.6523 0.199997L42.0922 1.76V0.220001H41.8023V1.76L40.2423 0.199997L40.0823 0.360001L41.8023 2.09V3.83L40.2423 2.27L40.0823 2.43999L41.8023 4.16V5.9L40.2423 4.34L40.0823 4.51L41.8023 6.23V7.97L40.2423 6.42L40.0823 6.58L41.8023 8.3V10.04L40.2423 8.48L40.0823 8.65L41.8023 10.37V12.11L40.2423 10.56L40.0823 10.72L41.8023 12.44V14.14L36.1023 4.51V4.18999L37.8722 2.43L37.7023 2.27L36.1023 3.87V2.12L37.8722 0.360001L37.7023 0.199997L36.1023 1.8V0H35.8923V1.8L34.2923 0.199997L34.1323 0.360001L35.8923 2.13V3.87L34.2923 2.27L34.1323 2.43L35.8923 4.2V4.51L30.1723 14.19V12.44L31.8923 10.72L31.7323 10.56L30.1723 12.12V10.37L31.8923 8.65L31.7323 8.48L30.1723 10.05V8.3L31.8923 6.58L31.7323 6.42L30.1723 7.98V6.23L31.8923 4.51L31.7323 4.34L30.1723 5.9V4.16L31.8923 2.43999L31.7323 2.27L30.1723 3.83V2.09L31.8923 0.360001L31.7323 0.199997L30.1723 1.76V0.220001H29.8823V1.76L28.3223 0.199997L28.1523 0.360001L29.8823 2.09V3.83L28.3223 2.27L28.1523 2.43999L29.8823 4.16V5.91L28.3223 4.34L28.1523 4.51L29.8823 6.23V7.98L28.3223 6.42L28.1523 6.58L29.8823 8.3V10.05L28.3223 8.48L28.1523 8.65L29.8823 10.37V12.12L28.3223 10.56L28.1523 10.72L29.8823 12.44V14.15L24.1823 4.52V4.2L25.9422 2.43L25.7822 2.27L24.1823 3.87V2.13L25.9422 0.360001L25.7822 0.199997L24.1823 1.8V0H23.9722V1.8L22.3722 0.199997L22.2123 0.360001L23.9722 2.12V3.87L22.3722 2.27L22.2123 2.43L23.9722 4.18999V4.51L18.2522 14.18V12.44L19.9722 10.72L19.8122 10.56L18.2522 12.11V10.37L19.9722 8.65L19.8122 8.48L18.2522 10.04V8.3L19.9722 6.58L19.8122 6.42L18.2522 7.97V6.23L19.9722 4.51L19.8122 4.34L18.2522 5.9V4.16L19.9722 2.43999L19.8122 2.27L18.2522 3.83V2.09L19.9722 0.360001L19.8122 0.199997L18.2522 1.76V0.220001H17.9623V1.76L16.4023 0.199997L16.2323 0.360001L17.9623 2.09V3.83L16.4023 2.27L16.2323 2.43999L17.9623 4.16V5.9L16.4023 4.34L16.2323 4.51L17.9623 6.23V7.98L16.4023 6.42L16.2323 6.58L17.9623 8.3V10.05L16.4023 8.48L16.2323 8.65L17.9623 10.37V12.12L16.4023 10.56L16.2323 10.72L17.9623 12.44V14.15L12.2623 4.51V4.18999L14.0223 2.43L13.8623 2.27L12.2623 3.87V2.12L14.0223 0.360001L13.8623 0.199997L12.2623 1.8V0H12.0523V1.8L10.4523 0.199997L10.2822 0.360001L12.0523 2.12V3.87L10.4523 2.27L10.2822 2.43L12.0523 4.18999V4.52L6.32225 14.18V12.44L8.04226 10.72L7.88225 10.56L6.32225 12.12V10.37L8.04226 8.65L7.88225 8.48L6.32225 10.05V8.3L8.04226 6.58L7.88225 6.42L6.32225 7.98V6.23L8.04226 4.51L7.88225 4.34L6.32225 5.9V4.16L8.04226 2.43999L7.88225 2.27L6.32225 3.83V2.09L8.04226 0.360001L7.88225 0.199997L6.32225 1.76V0.220001H6.03225V1.76L4.48226 0.199997L4.31224 0.360001L6.03225 2.08V3.83L4.48226 2.27L4.31224 2.43999L6.03225 4.15V5.9L4.48226 4.34L4.31224 4.51L6.03225 6.23V7.97L4.48226 6.42L4.31224 6.58L6.03225 8.29V10.04L4.48226 8.48L4.31224 8.65L6.03225 10.37V12.11L4.48226 10.56L4.31224 10.72L6.03225 12.44V14.14L6.02227 14.12L0 4.5V14.5L6.03225 14.5V14.51H6.13225H6.32225H17.9623H18.0622H18.1723H18.2522H29.8823H29.9823H30.0922H30.1723H41.8023H41.9023H42.0223H42.0922H53.7222H53.8223H53.9422H54.0123H65.6423H65.7423H65.8623H65.9323H77.5723H77.6723H77.7822H77.8623H89.4823H89.5922H89.7023H89.7822H101.412H101.512H101.622H101.702H113.332H113.432H113.552H113.622H125.262H125.362H125.472H125.542H137.182H137.392H137.472V14.5H143V4Z" fill="#A79373"/>
</svg>
